<svg id="visual" viewBox="0 0 900 450" width="900" height="450" xmlns="http://www.w3.org/2000/svg" xmlns:xlink="http://www.w3.org/1999/xlink" version="1.1"><rect x="0" y="0" width="900" height="450" fill="#eff3ff"></rect><path d="M0 354L15 347.2C30 340.3 60 326.7 90 326.7C120 326.7 150 340.3 180 340.2C210 340 240 326 270 327.5C300 329 330 346 360 353C390 360 420 357 450 352.8C480 348.7 510 343.3 540 335.7C570 328 600 318 630 318.2C660 318.3 690 328.7 720 338.7C750 348.7 780 358.3 810 361.2C840 364 870 360 885 358L900 356L900 451L885 451C870 451 840 451 810 451C780 451 750 451 720 451C690 451 660 451 630 451C600 451 570 451 540 451C510 451 480 451 450 451C420 451 390 451 360 451C330 451 300 451 270 451C240 451 210 451 180 451C150 451 120 451 90 451C60 451 30 451 15 451L0 451Z" fill="#cfd7ff"></path><path d="M0 373L15 366.3C30 359.7 60 346.3 90 344.3C120 342.3 150 351.7 180 360C210 368.3 240 375.7 270 375.5C300 375.3 330 367.7 360 359.7C390 351.7 420 343.3 450 341.5C480 339.7 510 344.3 540 350.2C570 356 600 363 630 362.7C660 362.3 690 354.7 720 352.5C750 350.3 780 353.7 810 357.2C840 360.7 870 364.3 885 366.2L900 368L900 451L885 451C870 451 840 451 810 451C780 451 750 451 720 451C690 451 660 451 630 451C600 451 570 451 540 451C510 451 480 451 450 451C420 451 390 451 360 451C330 451 300 451 270 451C240 451 210 451 180 451C150 451 120 451 90 451C60 451 30 451 15 451L0 451Z" fill="#b7c4fb"></path><path d="M0 365L15 365C30 365 60 365 90 367C120 369 150 373 180 378.7C210 384.3 240 391.7 270 387.7C300 383.7 330 368.3 360 366.7C390 365 420 377 450 380.7C480 384.3 510 379.7 540 373.8C570 368 600 361 630 357.5C660 354 690 354 720 355.8C750 357.7 780 361.3 810 363.7C840 366 870 367 885 367.5L900 368L900 451L885 451C870 451 840 451 810 451C780 451 750 451 720 451C690 451 660 451 630 451C600 451 570 451 540 451C510 451 480 451 450 451C420 451 390 451 360 451C330 451 300 451 270 451C240 451 210 451 180 451C150 451 120 451 90 451C60 451 30 451 15 451L0 451Z" fill="#9eb2f6"></path><path d="M0 387L15 390.5C30 394 60 401 90 400.7C120 400.3 150 392.7 180 392.5C210 392.3 240 399.7 270 399C300 398.3 330 389.7 360 389.7C390 389.7 420 398.3 450 400C480 401.7 510 396.3 540 396.2C570 396 600 401 630 403.7C660 406.3 690 406.7 720 407.8C750 409 780 411 810 406.7C840 402.3 870 391.7 885 386.3L900 381L900 451L885 451C870 451 840 451 810 451C780 451 750 451 720 451C690 451 660 451 630 451C600 451 570 451 540 451C510 451 480 451 450 451C420 451 390 451 360 451C330 451 300 451 270 451C240 451 210 451 180 451C150 451 120 451 90 451C60 451 30 451 15 451L0 451Z" fill="#82a1f1"></path><path d="M0 415L15 416.8C30 418.7 60 422.3 90 424.8C120 427.3 150 428.7 180 425.5C210 422.3 240 414.7 270 414.7C300 414.7 330 422.3 360 426C390 429.7 420 429.3 450 429.5C480 429.7 510 430.3 540 428.3C570 426.3 600 421.7 630 418.7C660 415.7 690 414.3 720 414.3C750 414.3 780 415.7 810 416.5C840 417.3 870 417.7 885 417.8L900 418L900 451L885 451C870 451 840 451 810 451C780 451 750 451 720 451C690 451 660 451 630 451C600 451 570 451 540 451C510 451 480 451 450 451C420 451 390 451 360 451C330 451 300 451 270 451C240 451 210 451 180 451C150 451 120 451 90 451C60 451 30 451 15 451L0 451Z" fill="#6290ec"></path></svg>