<svg id="visual" viewBox="0 0 900 600" width="900" height="600" xmlns="http://www.w3.org/2000/svg" xmlns:xlink="http://www.w3.org/1999/xlink" version="1.1"><rect x="0" y="0" width="900" height="600" fill="#1a191f"></rect><path d="M0 378L16.7 375.5C33.3 373 66.7 368 100 357.2C133.3 346.3 166.7 329.7 200 333.8C233.3 338 266.7 363 300 360.3C333.3 357.7 366.7 327.3 400 323.7C433.3 320 466.7 343 500 345.7C533.3 348.3 566.7 330.7 600 331.5C633.3 332.3 666.7 351.7 700 353.2C733.3 354.7 766.7 338.3 800 339.5C833.3 340.7 866.7 359.3 883.3 368.7L900 378L900 601L883.3 601C866.7 601 833.3 601 800 601C766.7 601 733.3 601 700 601C666.7 601 633.3 601 600 601C566.7 601 533.3 601 500 601C466.7 601 433.3 601 400 601C366.7 601 333.3 601 300 601C266.7 601 233.3 601 200 601C166.7 601 133.3 601 100 601C66.7 601 33.3 601 16.7 601L0 601Z" fill="#cdd1d3"></path><path d="M0 404L16.7 404.3C33.3 404.7 66.7 405.3 100 400.8C133.3 396.3 166.7 386.7 200 371.7C233.3 356.7 266.7 336.3 300 340.8C333.3 345.3 366.7 374.7 400 383C433.3 391.3 466.7 378.7 500 374.2C533.3 369.7 566.7 373.3 600 377.8C633.3 382.3 666.7 387.7 700 388.2C733.3 388.7 766.7 384.3 800 387.2C833.3 390 866.7 400 883.3 405L900 410L900 601L883.3 601C866.7 601 833.3 601 800 601C766.7 601 733.3 601 700 601C666.7 601 633.3 601 600 601C566.7 601 533.3 601 500 601C466.7 601 433.3 601 400 601C366.7 601 333.3 601 300 601C266.7 601 233.3 601 200 601C166.7 601 133.3 601 100 601C66.7 601 33.3 601 16.7 601L0 601Z" fill="#c1c6c9"></path><path d="M0 414L16.7 409.3C33.3 404.7 66.7 395.3 100 390.3C133.3 385.3 166.7 384.7 200 387.7C233.3 390.7 266.7 397.3 300 399.8C333.3 402.3 366.7 400.7 400 404.3C433.3 408 466.7 417 500 413.5C533.3 410 566.7 394 600 389.2C633.3 384.3 666.7 390.7 700 391.8C733.3 393 766.7 389 800 382.3C833.3 375.7 866.7 366.3 883.3 361.7L900 357L900 601L883.3 601C866.7 601 833.3 601 800 601C766.7 601 733.3 601 700 601C666.7 601 633.3 601 600 601C566.7 601 533.3 601 500 601C466.7 601 433.3 601 400 601C366.7 601 333.3 601 300 601C266.7 601 233.3 601 200 601C166.7 601 133.3 601 100 601C66.7 601 33.3 601 16.7 601L0 601Z" fill="#b5bcbf"></path><path d="M0 387L16.7 385.5C33.3 384 66.7 381 100 388.7C133.3 396.3 166.7 414.7 200 426.2C233.3 437.7 266.7 442.3 300 437.2C333.3 432 366.7 417 400 414.8C433.3 412.7 466.7 423.3 500 417.3C533.3 411.3 566.7 388.7 600 388.7C633.3 388.7 666.7 411.3 700 411.2C733.3 411 766.7 388 800 382.8C833.3 377.7 866.7 390.3 883.3 396.7L900 403L900 601L883.3 601C866.7 601 833.3 601 800 601C766.7 601 733.3 601 700 601C666.7 601 633.3 601 600 601C566.7 601 533.3 601 500 601C466.7 601 433.3 601 400 601C366.7 601 333.3 601 300 601C266.7 601 233.3 601 200 601C166.7 601 133.3 601 100 601C66.7 601 33.3 601 16.7 601L0 601Z" fill="#aab1b5"></path><path d="M0 402L16.7 409.2C33.3 416.3 66.7 430.7 100 435C133.3 439.3 166.7 433.7 200 426.5C233.3 419.3 266.7 410.7 300 410.2C333.3 409.7 366.7 417.3 400 417C433.3 416.7 466.7 408.3 500 413.2C533.3 418 566.7 436 600 435C633.3 434 666.7 414 700 404.3C733.3 394.7 766.7 395.3 800 397.5C833.3 399.7 866.7 403.3 883.3 405.2L900 407L900 601L883.3 601C866.7 601 833.3 601 800 601C766.7 601 733.3 601 700 601C666.7 601 633.3 601 600 601C566.7 601 533.3 601 500 601C466.7 601 433.3 601 400 601C366.7 601 333.3 601 300 601C266.7 601 233.3 601 200 601C166.7 601 133.3 601 100 601C66.7 601 33.3 601 16.7 601L0 601Z" fill="#9fa7ab"></path><path d="M0 451L16.7 454.2C33.3 457.3 66.7 463.7 100 467.8C133.3 472 166.7 474 200 469.7C233.3 465.3 266.7 454.7 300 445.5C333.3 436.3 366.7 428.7 400 434.7C433.3 440.7 466.7 460.3 500 464.8C533.3 469.3 566.7 458.7 600 454.2C633.3 449.7 666.7 451.3 700 449.5C733.3 447.7 766.7 442.3 800 443.7C833.3 445 866.7 453 883.3 457L900 461L900 601L883.3 601C866.7 601 833.3 601 800 601C766.7 601 733.3 601 700 601C666.7 601 633.3 601 600 601C566.7 601 533.3 601 500 601C466.7 601 433.3 601 400 601C366.7 601 333.3 601 300 601C266.7 601 233.3 601 200 601C166.7 601 133.3 601 100 601C66.7 601 33.3 601 16.7 601L0 601Z" fill="#949ca2"></path><path d="M0 497L16.7 487.8C33.3 478.7 66.7 460.3 100 456.7C133.3 453 166.7 464 200 473.2C233.3 482.3 266.7 489.7 300 485.3C333.3 481 366.7 465 400 462.5C433.3 460 466.7 471 500 473.7C533.3 476.3 566.7 470.7 600 469.5C633.3 468.3 666.7 471.7 700 469.8C733.3 468 766.7 461 800 457.3C833.3 453.7 866.7 453.3 883.3 453.2L900 453L900 601L883.3 601C866.7 601 833.3 601 800 601C766.7 601 733.3 601 700 601C666.7 601 633.3 601 600 601C566.7 601 533.3 601 500 601C466.7 601 433.3 601 400 601C366.7 601 333.3 601 300 601C266.7 601 233.3 601 200 601C166.7 601 133.3 601 100 601C66.7 601 33.3 601 16.7 601L0 601Z" fill="#899298"></path><path d="M0 498L16.7 499.3C33.3 500.7 66.7 503.3 100 499.3C133.3 495.3 166.7 484.7 200 481.5C233.3 478.3 266.7 482.7 300 481.5C333.3 480.3 366.7 473.7 400 476.7C433.3 479.7 466.7 492.3 500 494.7C533.3 497 566.7 489 600 482C633.3 475 666.7 469 700 465.8C733.3 462.7 766.7 462.3 800 464.5C833.3 466.7 866.7 471.3 883.3 473.7L900 476L900 601L883.3 601C866.7 601 833.3 601 800 601C766.7 601 733.3 601 700 601C666.7 601 633.3 601 600 601C566.7 601 533.3 601 500 601C466.7 601 433.3 601 400 601C366.7 601 333.3 601 300 601C266.7 601 233.3 601 200 601C166.7 601 133.3 601 100 601C66.7 601 33.3 601 16.7 601L0 601Z" fill="#7e888f"></path><path d="M0 499L16.7 500.7C33.3 502.3 66.7 505.7 100 510.8C133.3 516 166.7 523 200 519.3C233.3 515.7 266.7 501.3 300 494.5C333.3 487.7 366.7 488.3 400 493.8C433.3 499.3 466.7 509.7 500 509.3C533.3 509 566.7 498 600 498.7C633.3 499.3 666.7 511.7 700 515.7C733.3 519.7 766.7 515.3 800 510.2C833.3 505 866.7 499 883.3 496L900 493L900 601L883.3 601C866.7 601 833.3 601 800 601C766.7 601 733.3 601 700 601C666.7 601 633.3 601 600 601C566.7 601 533.3 601 500 601C466.7 601 433.3 601 400 601C366.7 601 333.3 601 300 601C266.7 601 233.3 601 200 601C166.7 601 133.3 601 100 601C66.7 601 33.3 601 16.7 601L0 601Z" fill="#737e86"></path><path d="M0 512L16.7 516.7C33.3 521.3 66.7 530.7 100 534.5C133.3 538.3 166.7 536.7 200 534.8C233.3 533 266.7 531 300 529.2C333.3 527.3 366.7 525.7 400 528C433.3 530.3 466.7 536.7 500 536.7C533.3 536.7 566.7 530.3 600 531.5C633.3 532.7 666.7 541.3 700 542.3C733.3 543.3 766.7 536.7 800 533.5C833.3 530.3 866.7 530.7 883.3 530.8L900 531L900 601L883.3 601C866.7 601 833.3 601 800 601C766.7 601 733.3 601 700 601C666.7 601 633.3 601 600 601C566.7 601 533.3 601 500 601C466.7 601 433.3 601 400 601C366.7 601 333.3 601 300 601C266.7 601 233.3 601 200 601C166.7 601 133.3 601 100 601C66.7 601 33.3 601 16.7 601L0 601Z" fill="#69747d"></path><path d="M0 554L16.7 553.5C33.3 553 66.7 552 100 551.7C133.3 551.3 166.7 551.7 200 552.7C233.3 553.7 266.7 555.3 300 553.7C333.3 552 366.7 547 400 544C433.3 541 466.7 540 500 539.2C533.3 538.3 566.7 537.7 600 538C633.3 538.3 666.7 539.7 700 540.8C733.3 542 766.7 543 800 544.2C833.3 545.3 866.7 546.7 883.3 547.3L900 548L900 601L883.3 601C866.7 601 833.3 601 800 601C766.7 601 733.3 601 700 601C666.7 601 633.3 601 600 601C566.7 601 533.3 601 500 601C466.7 601 433.3 601 400 601C366.7 601 333.3 601 300 601C266.7 601 233.3 601 200 601C166.7 601 133.3 601 100 601C66.7 601 33.3 601 16.7 601L0 601Z" fill="#5f6b74"></path><path d="M0 582L16.7 581.8C33.3 581.7 66.7 581.3 100 580.7C133.3 580 166.7 579 200 575.3C233.3 571.7 266.7 565.3 300 563.8C333.3 562.3 366.7 565.7 400 569.5C433.3 573.3 466.7 577.7 500 580.3C533.3 583 566.7 584 600 583.2C633.3 582.3 666.7 579.7 700 576.5C733.3 573.3 766.7 569.7 800 568C833.3 566.3 866.7 566.7 883.3 566.8L900 567L900 601L883.3 601C866.7 601 833.3 601 800 601C766.7 601 733.3 601 700 601C666.7 601 633.3 601 600 601C566.7 601 533.3 601 500 601C466.7 601 433.3 601 400 601C366.7 601 333.3 601 300 601C266.7 601 233.3 601 200 601C166.7 601 133.3 601 100 601C66.7 601 33.3 601 16.7 601L0 601Z" fill="#55616b"></path></svg>